Simulation
nRows=23
nColumns=15
endheader
time  TH_x TH_y TH_z SC_y  SC_z  SC_x  AC_y  AC_z  AC_x  GH_y  GH_z  GH_yy  EL_x  PS_y
0.595  0.000000  0.000000  0.000000  -35.05644255313993  1.240338546806603  5.4134580871871725  47.89802160248112  8.615614378422727  -3.368984044179201  -2.408554599229997  35.28188421514819  6.165224555828955  24.420830212376377  0.000000
0.6069  0.000000  0.000000  0.000000  -35.12795939419581  1.2802170984397196  5.569945826986761  47.876863044163876  8.920764784783497  -3.4255010100936722  -2.0258868190343304  36.042744241740216  5.538747350208946  24.27336701140724  0.000000
0.6187999999999999  0.000000  0.000000  0.000000  -35.20370731771162  1.3241627950351484  5.7230299920886445  47.85019307341579  9.235316253212632  -3.4745843189055208  -1.6445692983754987  36.78244742288106  4.936850400101967  24.118505787105867  0.000000
0.6306999999999999  0.000000  0.000000  0.000000  -35.28471508275349  1.372675893213594  5.871220092514106  47.81858572628541  9.559497565739793  -3.513815271965649  -1.266452680808816  37.50036225686919  4.360803425440746  23.95683501063781  0.000000
0.6426  0.000000  0.000000  0.000000  -35.37049107499518  1.426585337136124  6.014704365104577  47.783141110390645  9.891741932101544  -3.541880895238122  -0.8925939784271473  38.196156051473615  3.811197821458113  23.788757386512064  0.000000
0.6545  0.000000  0.000000  0.000000  -35.46167363889907  1.4866822714334647  6.153569918511168  47.74439078211574  10.231061581714814  -3.5574342155118206  -0.5241192062356039  38.86947180272395  3.288521249016266  23.615359267420974  0.000000
0.6664  0.000000  0.000000  0.000000  -35.55771146848064  1.5534718462601735  6.287712567834387  47.702937938929175  10.576384119489443  -3.5592169504396582  -0.16187787354256153  39.52030724637511  2.792769601923662  23.43781875891913  0.000000
0.6782999999999999  0.000000  0.000000  0.000000  -35.659583805355865  1.6273198164833185  6.417401155673592  47.658999615252725  10.926661049698128  -3.546165028503841  0.1933523501397191  40.14889165831011  2.323980897809035  23.25711853276233  0.000000
0.6901999999999999  0.000000  0.000000  0.000000  -35.76576199513028  1.7083567336142542  6.542414103388528  47.612660031598715  11.281240068678283  -3.5182023498700405  0.5398038097677182  40.755435113210275  1.8826659818327762  23.074491422887267  0.000000
0.7021  0.000000  0.000000  0.000000  -35.87694716709646  1.7964655980481152  6.6632322666585315  47.56419465287702  11.639372153131566  -3.4752145104855092  0.8757205778171685  41.340319533466214  1.4695062712070133  22.890902551406413  0.000000
0.714  0.000000  0.000000  0.000000  -35.99309041263733  1.8912538933402754  6.780306769579834  47.51419322141626  12.000025005744009  -3.417026845932818  1.1998528542618734  41.90423337464385  1.0845092186841223  22.707219883921425  0.000000
0.7259  0.000000  0.000000  0.000000  -36.11496897818642  1.9925869887690906  6.894461926395467  47.46287847724181  12.362248740013234  -3.344063185540458  1.5104692502638217  42.447609459886415  0.7278637528463816  22.524472696686015  0.000000
0.7377999999999999  0.000000  0.000000  0.000000  -36.24194428957099  2.1001763602737773  7.006239651314998  47.41079735156601  12.725213254398613  -3.2567143114355717  1.805583316361379  42.97089193249405  0.4000583776412219  22.343539426096708  0.000000
0.7496999999999999  0.000000  0.000000  0.000000  -36.37544084741747  2.213610016520974  7.116790841198118  47.35853676220172  13.087980309874073  -3.1552494843924532  2.08366841395282  43.47466412814975  0.10108671944211543  22.16524667171354  0.000000
0.7615999999999999  0.000000  0.000000  0.000000  -36.51532347687282  2.332415718851324  7.226813064397823  47.30696709673139  13.449655406701133  -3.040123850993733  2.343368051559777  43.959634238775784  -0.16950098595506466  21.990470798724157  0.000000
0.7735  0.000000  0.000000  0.000000  -36.66290821545515  2.4562889195169246  7.337578622409999  47.25666500966407  13.809225289265683  -2.9117998437779327  2.5834688227205413  44.4264635283185  -0.4120864407430558  21.820098101050867  0.000000
0.7854  0.000000  0.000000  0.000000  -36.81782150969853  2.5848786430071904  7.449892196777781  47.20838546469335  14.165701554871541  -2.770842532838878  2.8028542919533437  44.87592330973751  -0.6273650136836384  21.654978182417505  0.000000
0.7972999999999999  0.000000  0.000000  0.000000  -36.98115381130468  2.7179897118444774  7.565178808310234  47.16265768218704  14.51797953247421  -2.617911104645614  3.000634190988425  45.30870582577466  -0.8160468315245434  21.495916305014877  0.000000
0.8091999999999999  0.000000  0.000000  0.000000  -37.15229058570204  2.85535924328017  7.684356704489635  47.12018029385799  14.864989001665213  -2.453730163289799  3.1760293742734786  45.72560906839978  -0.9790951148435328  21.34367735988694  0.000000
0.8210999999999999  0.000000  0.000000  0.000000  -37.332089530047654  2.9968750629470504  7.80896933032076  47.081436217955485  15.205552393045496  -2.279124377020693  3.3285510564580685  46.127312021071496  -1.1175221096999732  21.198969972409525  0.000000
0.833  0.000000  0.000000  0.000000  -37.51967026812399  3.1423305068563994  7.939999393635164  47.04708623259487  15.538550356738066  -2.0949832886029163  3.4578465955135145  46.514577534764605  -1.2325398803293957  21.06244948175326  0.000000
0.8449  0.000000  0.000000  0.000000  -37.715639421859045  3.2916251506964374  8.079026675544103  47.01760279152085  15.86280441171105  -1.9022955214590587  3.5639427616916595  46.888005603835936  -1.3254993138166546  20.934656142555042  0.000000
0.8567999999999999  0.000000  0.000000  0.000000  -37.918826495333654  3.4445188560421913  8.22703872180633  46.993620264946934  16.177209874191472  -1.7021040266054026  3.647030649441355  47.248234979031274  -1.39789358601403  20.8160761778339  0.000000
